<?xml version="1.0" standalone="no"?>
<!DOCTYPE svg PUBLIC "-//W3C//DTD SVG 20010904//EN"
 "http://www.w3.org/TR/2001/REC-SVG-20010904/DTD/svg10.dtd">
<svg version="1.0" xmlns="http://www.w3.org/2000/svg"
 width="581.000000pt" height="676.000000pt" viewBox="0 0 581.000000 676.000000"
 preserveAspectRatio="xMidYMid meet">

<g transform="translate(0.000000,676.000000) scale(0.100000,-0.100000)"
fill="#364E8A" stroke="none">
<path d="M0 3380 l0 -3380 2905 0 2905 0 0 3380 0 3380 -2905 0 -2905 0 0
-3380z m3043 3210 c350 -104 629 -215 972 -385 592 -294 1080 -644 1573 -1129
l143 -141 -6 -100 c-80 -1294 -566 -2515 -1395 -3510 -299 -359 -670 -710
-1040 -985 -127 -94 -349 -247 -375 -256 -13 -5 -116 59 -285 180 -586 416
-1129 975 -1526 1571 -412 617 -684 1240 -859 1971 -89 370 -155 832 -155
1082 l0 55 138 136 c604 596 1290 1042 2087 1356 125 49 558 192 588 194 5 1
68 -17 140 -39z"/>
<path d="M2740 6390 c-292 -92 -546 -195 -850 -346 -557 -275 -1035 -615
-1476 -1046 l-141 -138 4 -58 c2 -31 13 -138 24 -237 62 -559 178 -1022 386
-1550 82 -207 292 -632 403 -815 408 -674 904 -1226 1515 -1687 128 -97 292
-213 301 -213 21 0 331 227 506 371 797 652 1427 1541 1776 2500 169 465 265
866 321 1344 11 94 23 210 27 258 l7 89 -69 70 c-38 39 -135 130 -215 203
-613 557 -1339 979 -2119 1233 -102 33 -198 62 -215 65 -20 4 -80 -10 -185
-43z m342 -146 c808 -262 1526 -686 2156 -1274 85 -78 156 -149 159 -158 10
-24 -25 -347 -57 -530 -147 -853 -445 -1591 -933 -2317 -346 -515 -833 -1018
-1354 -1402 -91 -66 -147 -102 -155 -97 -45 27 -291 212 -383 288 -626 518
-1145 1170 -1499 1881 -328 658 -511 1281 -585 1992 l-19 182 96 94 c619 603
1373 1060 2197 1333 105 34 193 63 197 63 4 1 85 -24 180 -55z"/>
<path d="M2721 6144 c-459 -154 -975 -407 -1366 -671 -236 -159 -538 -401
-734 -589 l-113 -109 16 -155 c73 -671 258 -1305 561 -1915 403 -813 994
-1522 1707 -2048 l117 -86 149 113 c227 171 379 304 578 501 460 459 811 947
1099 1530 303 612 481 1222 554 1895 l18 165 -31 34 c-17 18 -89 86 -161 150
-526 471 -1053 802 -1695 1064 -195 80 -478 177 -514 177 -12 0 -95 -25 -185
-56z m-777 -1940 c19 -18 21 -55 4 -72 -7 -7 -24 -12 -38 -12 -14 0 -31 5 -38
12 -28 28 -2 88 38 88 10 0 26 -7 34 -16z m1202 -9 c32 -49 -11 -92 -70 -69
-19 7 -22 64 -4 82 20 20 56 14 74 -13z m1453 12 c6 -8 12 -80 13 -186 l3
-173 103 96 c89 84 105 95 122 86 32 -17 24 -34 -46 -100 l-66 -61 58 -85 c85
-120 95 -140 88 -158 -3 -9 -17 -16 -29 -16 -19 0 -39 22 -96 105 l-72 106
-34 -33 c-30 -29 -33 -37 -33 -92 0 -72 -9 -89 -41 -84 l-24 3 -3 289 c-2 290
0 316 33 316 7 0 17 -6 24 -13z m-3382 -24 c54 -40 68 -69 68 -143 0 -54 -4
-74 -21 -97 -35 -47 -79 -66 -165 -71 l-79 -5 0 -116 c0 -64 -4 -122 -9 -129
-4 -8 -19 -12 -32 -10 l-24 3 -3 280 -3 280 23 19 c20 16 36 18 121 14 77 -4
104 -9 124 -25z m2459 13 c15 -12 17 -18 8 -33 -8 -14 -26 -19 -73 -21 l-61
-3 0 -239 c0 -135 -4 -250 -10 -265 -8 -21 -16 -26 -38 -23 l-27 3 -3 262 -2
262 -68 3 c-62 3 -67 5 -70 27 -2 13 2 28 10 32 7 5 81 9 164 9 115 0 155 -3
170 -14z m-2196 -202 l0 -26 35 31 c33 29 57 37 95 31 50 -6 34 -54 -23 -69
-23 -6 -55 -21 -72 -35 l-30 -24 -5 -144 -5 -143 -26 -3 c-36 -4 -39 10 -39
220 0 147 3 179 16 192 22 22 54 4 54 -30z m942 -1 c44 -42 61 -101 56 -191
-8 -131 -61 -192 -168 -192 -114 0 -165 66 -165 215 0 99 15 139 67 178 57 42
161 37 210 -10z m254 7 l6 -27 26 24 c28 26 77 42 105 35 13 -3 17 -12 15 -30
-2 -21 -12 -30 -52 -44 -27 -9 -59 -27 -72 -39 -23 -21 -24 -29 -24 -149 0
-134 -9 -166 -46 -158 -18 3 -19 15 -22 203 -2 175 0 201 14 212 23 16 44 5
50 -27z m1329 11 c54 -30 65 -68 65 -231 0 -80 -4 -151 -9 -158 -4 -8 -19 -12
-32 -10 -18 2 -25 10 -27 31 l-3 27 -35 -27 c-46 -34 -126 -43 -173 -18 -64
32 -76 124 -24 185 29 34 76 52 163 59 65 6 65 6 63 36 -3 38 -36 65 -80 65
-25 0 -43 -9 -70 -35 -39 -38 -63 -44 -83 -21 -9 12 -9 21 2 42 36 75 158 102
243 55z m412 -23 c38 -36 42 -63 13 -78 -16 -9 -26 -4 -58 25 -28 25 -49 35
-71 35 -45 0 -71 -16 -71 -45 0 -29 23 -45 105 -76 81 -30 125 -74 125 -126 0
-74 -54 -113 -156 -113 -63 0 -115 21 -144 58 -26 32 -25 58 1 72 17 10 26 6
64 -29 35 -32 52 -41 80 -41 52 0 75 15 75 50 0 34 -30 57 -114 87 -70 25
-116 71 -116 114 0 58 39 96 110 109 58 10 121 -7 157 -42z m-2479 30 c17 -17
17 -379 0 -396 -18 -18 -46 -14 -58 7 -13 26 -13 356 0 382 12 21 40 25 58 7z
m1197 -198 l0 -205 -30 0 -30 0 -3 185 c-3 220 -1 232 36 228 l27 -3 0 -205z
m-75 -402 l0 -33 -257 -107 c-141 -59 -258 -106 -259 -105 -3 3 499 277 509
277 4 0 7 -15 7 -32z m70 -57 c0 -28 -4 -30 -232 -116 -128 -48 -240 -90 -248
-92 -8 -2 93 50 225 116 132 66 243 120 248 120 4 1 7 -12 7 -28z m80 -108 c0
-38 3 -92 6 -120 6 -49 5 -53 -15 -53 -18 0 -21 6 -21 48 0 26 -3 63 -6 83
l-6 36 -240 -74 c-132 -41 -242 -72 -244 -71 -3 4 503 215 519 217 4 1 7 -29
7 -66z m135 -249 l-54 -129 -1 -200 0 -200 -238 -68 c-130 -38 -245 -69 -254
-70 -9 -1 -53 30 -97 68 l-80 70 -107 318 c-58 175 -104 321 -101 323 3 3 42
-14 88 -37 l83 -41 356 6 355 7 -160 -156 c-88 -85 -164 -155 -168 -155 -4 0
-47 26 -95 58 -48 32 -104 69 -125 82 l-39 23 57 -89 c32 -49 90 -140 129
-201 39 -62 73 -112 76 -112 3 0 99 143 215 319 115 175 211 318 212 316 1 -1
-22 -60 -52 -132z"/>
<path d="M1032 4128 c-8 -8 -12 -45 -12 -100 l0 -88 49 0 c56 0 111 16 129 38
13 17 16 89 6 117 -15 38 -142 63 -172 33z"/>
<path d="M2255 3946 c-29 -29 -39 -76 -33 -161 5 -81 28 -110 87 -110 53 0 77
25 92 91 16 72 -1 155 -38 184 -35 27 -78 26 -108 -4z"/>
<path d="M3886 3805 c-27 -7 -56 -21 -63 -31 -20 -28 -17 -81 6 -94 67 -35
171 29 171 106 0 32 -2 34 -32 33 -18 0 -55 -6 -82 -14z"/>
</g>
</svg>
