<svg xmlns="http://www.w3.org/2000/svg" height="26" viewBox="0 96 960 960" width="26"><path d="M189.451 632.13q-23.016 0-39.581-16.31-16.566-16.311-16.566-39.619 0-23.766 16.554-40.049 16.553-16.282 39.798-16.282 22.948 0 39.994 16.282 17.046 16.283 17.046 39.647 0 23.766-17.114 40.049-17.115 16.282-40.131 16.282Zm290.75 0q-23.766 0-40.049-16.31-16.282-16.311-16.282-39.619 0-23.766 16.31-40.049 16.311-16.282 39.619-16.282 23.766 0 40.049 16.282 16.282 16.283 16.282 39.647 0 23.766-16.282 40.049-16.283 16.282-39.647 16.282Zm290.163 0q-23.72 0-40.39-16.31-16.67-16.311-16.67-39.619 0-23.766 16.809-40.049 16.809-16.282 40.413-16.282 23.604 0 40.17 16.282 16.565 16.283 16.565 39.647 0 23.766-16.705 40.049-16.705 16.282-40.192 16.282Z"/></svg>