<svg width="206" height="58" viewBox="0 0 206 58" fill="none" xmlns="http://www.w3.org/2000/svg">
<path d="M3.03464 15.6649L11.0945 14.8591C13.8142 14.5872 15.927 15.113 17.4328 16.4364C18.9386 17.7598 19.8324 19.8312 20.1143 22.6505L20.4575 26.0834C20.7394 28.9026 20.2733 31.11 19.0593 32.7053C17.8453 34.3006 15.8785 35.2343 13.1587 35.5062L10.5716 35.7648L11.9892 49.9442L6.51645 50.4913L3.03464 15.6649ZM12.6613 30.531C13.5568 30.4415 14.1953 30.1264 14.5767 29.5858C14.9914 29.0418 15.139 28.1728 15.0196 26.9788L14.6068 22.8494C14.4874 21.6553 14.1706 20.8327 13.6565 20.3816C13.1756 19.9272 12.4874 19.7448 11.5919 19.8343L9.00476 20.093L10.0742 30.7896L12.6613 30.531Z" fill="white"/>
<path d="M3.03464 15.6649L2.93516 14.6699L1.94012 14.7694L2.0396 15.7644L3.03464 15.6649ZM17.4328 16.4364L16.7726 17.1875L16.7726 17.1875L17.4328 16.4364ZM19.0593 32.7053L18.2635 32.0997L18.2635 32.0997L19.0593 32.7053ZM10.5716 35.7648L10.4721 34.7698L9.47705 34.8693L9.57653 35.8643L10.5716 35.7648ZM11.9892 49.9442L12.0887 50.9392L13.0837 50.8397L12.9842 49.8447L11.9892 49.9442ZM6.51645 50.4913L5.52141 50.5908L5.62089 51.5858L6.61593 51.4863L6.51645 50.4913ZM14.5767 29.5858L13.7814 28.9795L13.7703 28.9942L13.7597 29.0093L14.5767 29.5858ZM13.6565 20.3816L12.9698 21.1085L12.9832 21.1211L12.997 21.1333L13.6565 20.3816ZM9.00476 20.093L8.90528 19.0979L7.91024 19.1974L8.00972 20.1925L9.00476 20.093ZM10.0742 30.7896L9.07913 30.8891L9.17861 31.8842L10.1737 31.7847L10.0742 30.7896ZM3.13412 16.66L11.1939 15.8542L10.995 13.8641L2.93516 14.6699L3.13412 16.66ZM11.1939 15.8542C13.7416 15.5995 15.5426 16.1064 16.7726 17.1875L18.093 15.6853C16.3115 14.1195 13.8868 13.575 10.995 13.8641L11.1939 15.8542ZM16.7726 17.1875C18.0222 18.2857 18.8521 20.0783 19.1192 22.75L21.1093 22.551C20.8127 19.5841 19.855 17.2339 18.093 15.6853L16.7726 17.1875ZM19.1192 22.75L19.4625 26.1828L21.4525 25.9839L21.1093 22.551L19.1192 22.75ZM19.4625 26.1828C19.7296 28.8545 19.2709 30.7759 18.2635 32.0997L19.8551 33.3109C21.2757 31.444 21.7492 28.9508 21.4525 25.9839L19.4625 26.1828ZM18.2635 32.0997C17.2718 33.403 15.6069 34.2564 13.0592 34.5112L13.2582 36.5012C16.15 36.2121 18.4188 35.1983 19.8551 33.3109L18.2635 32.0997ZM13.0592 34.5112L10.4721 34.7698L10.6711 36.7599L13.2582 36.5012L13.0592 34.5112ZM9.57653 35.8643L10.9941 50.0436L12.9842 49.8447L11.5666 35.6654L9.57653 35.8643ZM11.8897 48.9491L6.41697 49.4963L6.61593 51.4863L12.0887 50.9392L11.8897 48.9491ZM7.51149 50.3918L4.02968 15.5654L2.0396 15.7644L5.52141 50.5908L7.51149 50.3918ZM12.7608 31.526C13.8357 31.4186 14.7909 31.0168 15.3938 30.1623L13.7597 29.0093C13.5997 29.236 13.2779 29.4644 12.5618 29.536L12.7608 31.526ZM15.3721 30.192C16.0207 29.3409 16.1418 28.1514 16.0146 26.8793L14.0246 27.0782C14.1361 28.1943 13.962 28.7427 13.7814 28.9795L15.3721 30.192ZM16.0146 26.8793L15.6018 22.7499L13.6117 22.9488L14.0246 27.0782L16.0146 26.8793ZM15.6018 22.7499C15.4746 21.4778 15.1204 20.3357 14.3161 19.63L12.997 21.1333C13.2209 21.3297 13.5001 21.8328 13.6117 22.9488L15.6018 22.7499ZM14.3433 19.6548C13.5832 18.9365 12.5674 18.7318 11.4924 18.8393L11.6913 20.8294C12.4074 20.7578 12.7681 20.9179 12.9698 21.1085L14.3433 19.6548ZM11.4924 18.8393L8.90528 19.0979L9.10424 21.088L11.6913 20.8294L11.4924 18.8393ZM8.00972 20.1925L9.07913 30.8891L11.0692 30.6902L9.9998 19.9935L8.00972 20.1925ZM10.1737 31.7847L12.7608 31.526L12.5618 29.536L9.97469 29.7946L10.1737 31.7847Z" fill="white"/>
<path d="M25.3073 13.5445L33.4343 12.9321C36.2596 12.7192 38.3705 13.2287 39.7671 14.4605C41.1611 15.6592 41.9608 17.6213 42.1662 20.3469L42.3277 22.4908C42.6007 26.1139 41.5769 28.4976 39.2564 29.6418L39.2639 29.7416C40.6235 30.0402 41.6156 30.7845 42.2401 31.9742C42.8978 33.1615 43.3043 34.7855 43.4596 36.8464L43.9217 42.979C43.9969 43.9762 44.0915 44.788 44.2056 45.4145C44.3171 46.0078 44.5284 46.5936 44.8394 47.1719L39.2552 47.5927C39.0132 47.0426 38.8402 46.5208 38.7361 46.0273C38.6321 45.5337 38.5312 44.6387 38.4335 43.3424L37.9526 36.9605C37.8324 35.365 37.4826 34.2716 36.9032 33.6801C36.357 33.0861 35.4524 32.8367 34.1893 32.9319L32.2946 33.0747L33.4218 48.0323L27.9373 48.4455L25.3073 13.5445ZM33.9133 27.9385C35.0102 27.8559 35.8032 27.512 36.2925 26.9068C36.815 26.2992 37.0261 25.3306 36.9259 24.001L36.723 21.3086C36.6279 20.0456 36.3263 19.149 35.8184 18.619C35.3437 18.0865 34.6244 17.8566 33.6604 17.9292L31.1675 18.1171L31.9189 28.0888L33.9133 27.9385Z" fill="white"/>
<path d="M25.3073 13.5445L25.2322 12.5473L24.235 12.6225L24.3102 13.6196L25.3073 13.5445ZM39.7671 14.4605L39.1055 15.2105L39.1151 15.2188L39.7671 14.4605ZM39.2564 29.6418L38.8141 28.745L38.2085 29.0436L38.2592 29.717L39.2564 29.6418ZM39.2639 29.7416L38.2667 29.8167L38.3226 30.5586L39.0493 30.7183L39.2639 29.7416ZM42.2401 31.9742L41.3546 32.439L41.3599 32.449L41.3653 32.4588L42.2401 31.9742ZM44.2056 45.4145L43.2217 45.5937L43.2228 45.5993L44.2056 45.4145ZM44.8394 47.1719L44.9145 48.1691L46.449 48.0534L45.7201 46.6982L44.8394 47.1719ZM39.2552 47.5927L38.3399 47.9954L38.6249 48.643L39.3304 48.5899L39.2552 47.5927ZM36.9032 33.6801L36.1671 34.357L36.1778 34.3686L36.1888 34.3799L36.9032 33.6801ZM32.2946 33.0747L32.2195 32.0775L31.2223 32.1526L31.2975 33.1498L32.2946 33.0747ZM33.4218 48.0323L33.4969 49.0294L34.4941 48.9543L34.4189 47.9571L33.4218 48.0323ZM27.9373 48.4455L26.9401 48.5207L27.0153 49.5179L28.0125 49.4427L27.9373 48.4455ZM36.2925 26.9068L35.5342 26.2548L35.5244 26.2663L35.5148 26.2781L36.2925 26.9068ZM35.8184 18.619L35.0719 19.2844L35.0839 19.2979L35.0964 19.3109L35.8184 18.619ZM31.1675 18.1171L31.0924 17.1199L30.0952 17.195L30.1703 18.1922L31.1675 18.1171ZM31.9189 28.0888L30.9218 28.1639L30.9969 29.1611L31.9941 29.086L31.9189 28.0888ZM25.3825 14.5417L33.5094 13.9293L33.3592 11.9349L25.2322 12.5473L25.3825 14.5417ZM33.5094 13.9293C36.2042 13.7262 37.9958 14.2315 39.1055 15.2105L40.4286 13.7106C38.7453 12.2258 36.315 11.7122 33.3592 11.9349L33.5094 13.9293ZM39.1151 15.2188C40.2282 16.1759 40.9739 17.8333 41.169 20.4221L43.1633 20.2718C42.9476 17.4094 42.0939 15.1425 40.419 13.7023L39.1151 15.2188ZM41.169 20.4221L41.3305 22.566L43.3249 22.4157L43.1633 20.2718L41.169 20.4221ZM41.3305 22.566C41.4595 24.2775 41.2738 25.6047 40.8458 26.6012C40.4276 27.5749 39.7602 28.2784 38.8141 28.745L39.6986 30.5387C41.0731 29.861 42.0779 28.8005 42.6835 27.3905C43.2792 26.0034 43.4689 24.3272 43.3249 22.4157L41.3305 22.566ZM38.2592 29.717L38.2667 29.8167L40.2611 29.6664L40.2535 29.5667L38.2592 29.717ZM39.0493 30.7183C40.1327 30.9563 40.8728 31.5211 41.3546 32.439L43.1255 31.5095C42.3583 30.0478 41.1144 29.1242 39.4784 28.7649L39.0493 30.7183ZM41.3653 32.4588C41.9264 33.4716 42.3129 34.9364 42.4624 36.9215L44.4568 36.7712C44.2958 34.6347 43.8692 32.8514 43.1148 31.4896L41.3653 32.4588ZM42.4624 36.9215L42.9246 43.0541L44.9189 42.9038L44.4568 36.7712L42.4624 36.9215ZM42.9246 43.0541C43.001 44.0689 43.0989 44.9191 43.2217 45.5937L45.1894 45.2354C45.0841 44.6569 44.9927 43.8834 44.9189 42.9038L42.9246 43.0541ZM43.2228 45.5993C43.3549 46.302 43.6033 46.9847 43.9587 47.6455L45.7201 46.6982C45.4535 46.2025 45.2793 45.7136 45.1883 45.2297L43.2228 45.5993ZM44.7643 46.1747L39.1801 46.5955L39.3304 48.5899L44.9145 48.1691L44.7643 46.1747ZM40.1705 47.1899C39.9512 46.6914 39.8021 46.2357 39.7146 45.821L37.7576 46.2335C37.8783 46.806 38.0752 47.3938 38.3399 47.9954L40.1705 47.1899ZM39.7146 45.821C39.626 45.4005 39.5287 44.5671 39.4307 43.2673L37.4364 43.4175C37.5338 44.7104 37.6382 45.6669 37.7576 46.2335L39.7146 45.821ZM39.4307 43.2673L38.9498 36.8854L36.9555 37.0356L37.4364 43.4175L39.4307 43.2673ZM38.9498 36.8854C38.8261 35.2438 38.4582 33.8385 37.6175 32.9803L36.1888 34.3799C36.5069 34.7046 36.8387 35.4862 36.9555 37.0356L38.9498 36.8854ZM37.6393 33.0032C36.7906 32.0803 35.5071 31.8298 34.1141 31.9347L34.2644 33.9291C35.3976 33.8437 35.9233 34.0919 36.1671 34.357L37.6393 33.0032ZM34.1141 31.9347L32.2195 32.0775L32.3698 34.0718L34.2644 33.9291L34.1141 31.9347ZM31.2975 33.1498L32.4246 48.1074L34.4189 47.9571L33.2918 32.9995L31.2975 33.1498ZM33.3466 47.0351L27.8622 47.4484L28.0125 49.4427L33.4969 49.0294L33.3466 47.0351ZM28.9345 48.3704L26.3045 13.4693L24.3102 13.6196L26.9401 48.5207L28.9345 48.3704ZM33.9884 28.9357C35.2442 28.8411 36.3459 28.4314 37.0701 27.5355L35.5148 26.2781C35.2606 26.5926 34.7762 26.8707 33.8381 26.9413L33.9884 28.9357ZM37.0507 27.5588C37.8307 26.6517 38.0307 25.3538 37.9231 23.9259L35.9287 24.0762C36.0215 25.3074 35.7992 25.9467 35.5342 26.2548L37.0507 27.5588ZM37.9231 23.9259L37.7202 21.2335L35.7259 21.3838L35.9287 24.0762L37.9231 23.9259ZM37.7202 21.2335C37.6191 19.8912 37.2896 18.7089 36.5404 17.9271L35.0964 19.3109C35.363 19.5892 35.6366 20.1999 35.7259 21.3838L37.7202 21.2335ZM36.5648 17.9536C35.8149 17.1123 34.7413 16.8449 33.5853 16.932L33.7356 18.9264C34.5074 18.8682 34.8725 19.0607 35.0719 19.2844L36.5648 17.9536ZM33.5853 16.932L31.0924 17.1199L31.2426 19.1142L33.7356 18.9264L33.5853 16.932ZM30.1703 18.1922L30.9218 28.1639L32.9161 28.0137L32.1647 18.0419L30.1703 18.1922ZM31.9941 29.086L33.9884 28.9357L33.8381 26.9413L31.8438 27.0916L31.9941 29.086Z" fill="white"/>
<path d="M48.3664 11.9422L53.8579 11.6367L55.8019 46.5827L50.3104 46.8882L48.3664 11.9422Z" fill="white"/>
<path d="M48.3664 11.9422L48.3109 10.9438L47.3124 10.9993L47.368 11.9978L48.3664 11.9422ZM53.8579 11.6367L54.8564 11.5812L54.8008 10.5827L53.8024 10.6383L53.8579 11.6367ZM55.8019 46.5827L55.8575 47.5812L56.8559 47.5256L56.8004 46.5272L55.8019 46.5827ZM50.3104 46.8882L49.312 46.9437L49.3675 47.9422L50.366 47.8867L50.3104 46.8882ZM48.422 12.9407L53.9135 12.6352L53.8024 10.6383L48.3109 10.9438L48.422 12.9407ZM52.8595 11.6923L54.8035 46.6383L56.8004 46.5272L54.8564 11.5812L52.8595 11.6923ZM55.7464 45.5843L50.2549 45.8897L50.366 47.8867L55.8575 47.5812L55.7464 45.5843ZM51.3089 46.8327L49.3649 11.8867L47.368 11.9978L49.312 46.9437L51.3089 46.8327Z" fill="white"/>
<path d="M71.1246 46.422C68.4263 46.519 66.3335 45.827 64.846 44.3462C63.3585 42.8653 62.5644 40.7258 62.4639 37.9276L61.8029 19.5395C61.7023 16.7413 62.3407 14.5503 63.718 12.9664C65.0953 11.3826 67.1331 10.5422 69.8314 10.4452C72.5296 10.3482 74.6225 11.0401 76.11 12.521C77.5975 14.0018 78.3915 16.1414 78.4921 18.9396L79.1531 37.3277C79.2537 40.1259 78.6153 42.3169 77.238 43.9007C75.8606 45.4846 73.8228 46.325 71.1246 46.422ZM70.945 41.4252C72.8437 41.3569 73.7518 40.1736 73.6692 37.875L72.9831 18.7874C72.9005 16.4888 71.9098 15.3737 70.011 15.442C68.1122 15.5102 67.2041 16.6936 67.2868 18.9921L67.9729 38.0798C68.0555 40.3783 69.0462 41.4934 70.945 41.4252Z" fill="white"/>
<path d="M64.846 44.3462L65.5515 43.6375L65.5515 43.6375L64.846 44.3462ZM63.718 12.9664L64.4726 13.6226L64.4726 13.6226L63.718 12.9664ZM76.11 12.521L75.4045 13.2297L75.4045 13.2297L76.11 12.521ZM77.238 43.9007L76.4834 43.2445L76.4834 43.2445L77.238 43.9007ZM71.0887 45.4226C68.5833 45.5127 66.7903 44.8708 65.5515 43.6375L64.1404 45.0548C65.8766 46.7833 68.2693 47.5252 71.1605 47.4213L71.0887 45.4226ZM65.5515 43.6375C64.2969 42.3885 63.5578 40.523 63.4632 37.8917L61.4645 37.9635C61.5711 40.9286 62.4201 43.3422 64.1404 45.0548L65.5515 43.6375ZM63.4632 37.8917L62.8022 19.5035L60.8035 19.5754L61.4645 37.9635L63.4632 37.8917ZM62.8022 19.5035C62.7077 16.8722 63.3109 14.9585 64.4726 13.6226L62.9634 12.3102C61.3705 14.142 60.697 16.6103 60.8035 19.5754L62.8022 19.5035ZM64.4726 13.6226C65.6197 12.3036 67.362 11.5346 69.8673 11.4445L69.7955 9.44584C66.9043 9.54976 64.571 10.4616 62.9634 12.3102L64.4726 13.6226ZM69.8673 11.4445C72.3726 11.3545 74.1657 11.9964 75.4045 13.2297L76.8155 11.8123C75.0794 10.0839 72.6867 9.34191 69.7955 9.44584L69.8673 11.4445ZM75.4045 13.2297C76.6591 14.4787 77.3982 16.3442 77.4928 18.9755L79.4915 18.9036C79.3849 15.9386 78.5359 13.525 76.8155 11.8123L75.4045 13.2297ZM77.4928 18.9755L78.1537 37.3636L80.1524 37.2918L79.4915 18.9036L77.4928 18.9755ZM78.1537 37.3636C78.2483 39.9949 77.6451 41.9086 76.4834 43.2445L77.9925 44.5569C79.5855 42.7251 80.259 40.2568 80.1524 37.2918L78.1537 37.3636ZM76.4834 43.2445C75.3363 44.5636 73.594 45.3326 71.0887 45.4226L71.1605 47.4213C74.0517 47.3174 76.385 46.4055 77.9925 44.5569L76.4834 43.2445ZM70.9809 42.4245C72.14 42.3829 73.1601 41.9858 73.8435 41.0952C74.4979 40.2423 74.7139 39.1009 74.6686 37.8391L72.6698 37.911C72.7071 38.9477 72.5104 39.5472 72.2568 39.8777C72.0321 40.1705 71.6488 40.3992 70.9091 40.4258L70.9809 42.4245ZM74.6686 37.8391L73.9824 18.7514L71.9837 18.8233L72.6698 37.911L74.6686 37.8391ZM73.9824 18.7514C73.9371 17.4896 73.6397 16.3667 72.9257 15.563C72.1801 14.7238 71.1341 14.4009 69.9751 14.4426L70.0469 16.4413C70.7866 16.4147 71.1854 16.6153 71.4305 16.8913C71.7072 17.2027 71.9465 17.7866 71.9837 18.8233L73.9824 18.7514ZM69.9751 14.4426C68.816 14.4843 67.7959 14.8814 67.1125 15.7719C66.458 16.6248 66.2421 17.7662 66.2874 19.028L68.2861 18.9562C68.2489 17.9195 68.4456 17.32 68.6992 16.9895C68.9239 16.6966 69.3072 16.4679 70.0469 16.4413L69.9751 14.4426ZM66.2874 19.028L66.9735 38.1157L68.9722 38.0439L68.2861 18.9562L66.2874 19.028ZM66.9735 38.1157C67.0189 39.3775 67.3163 40.5005 68.0303 41.3042C68.7758 42.1434 69.8218 42.4662 70.9809 42.4245L70.9091 40.4258C70.1693 40.4524 69.7706 40.2518 69.5255 39.9759C69.2488 39.6644 69.0095 39.0806 68.9722 38.0439L66.9735 38.1157Z" fill="white"/>
<path d="M85.1483 10.5085L93.2978 10.4187C96.131 10.3875 98.2049 11.0314 99.5195 12.3503C100.834 13.6359 101.506 15.6453 101.536 18.3785L101.56 20.5283C101.6 24.1614 100.425 26.4745 98.036 27.4676L98.0371 27.5676C99.3747 27.9529 100.317 28.7592 100.864 29.9866C101.444 31.2136 101.746 32.8604 101.768 34.9269L101.836 41.0765C101.847 42.0765 101.89 42.8927 101.963 43.5253C102.036 44.1245 102.21 44.7226 102.483 45.3197L96.8833 45.3814C96.6771 44.8169 96.5379 44.2851 96.4657 43.7859C96.3935 43.2866 96.3503 42.3871 96.3359 41.0871L96.2654 34.6875C96.2478 33.0876 95.9688 31.974 95.4286 31.3465C94.9216 30.7188 94.0348 30.4118 92.7683 30.4258L90.8684 30.4467L91.0336 45.4458L85.534 45.5064L85.1483 10.5085ZM92.8132 25.425C93.9131 25.4129 94.7266 25.1206 95.2536 24.5481C95.814 23.9752 96.0869 23.0221 96.0722 21.6889L96.0424 18.989C96.0285 17.7224 95.7851 16.8084 95.3122 16.2469C94.8726 15.685 94.1696 15.4094 93.2029 15.4201L90.7031 15.4476L90.8133 25.447L92.8132 25.425Z" fill="white"/>
<path d="M85.1483 10.5085L85.1373 9.5086L84.1374 9.51962L84.1484 10.5196L85.1483 10.5085ZM99.5195 12.3503L98.8112 13.0563L98.8202 13.0652L99.5195 12.3503ZM98.036 27.4676L97.6522 26.5442L97.0286 26.8033L97.036 27.4786L98.036 27.4676ZM98.0371 27.5676L97.0371 27.5786L97.0453 28.3226L97.7603 28.5285L98.0371 27.5676ZM100.864 29.9866L99.9505 30.3936L99.9551 30.4039L99.9599 30.4141L100.864 29.9866ZM101.963 43.5253L100.97 43.6409L100.971 43.6467L101.963 43.5253ZM102.483 45.3197L102.494 46.3196L104.033 46.3026L103.392 44.9035L102.483 45.3197ZM96.8833 45.3814L95.944 45.7246L96.1868 46.3891L96.8943 46.3813L96.8833 45.3814ZM95.4286 31.3465L94.6506 31.9748L94.6605 31.9871L94.6708 31.9991L95.4286 31.3465ZM90.8684 30.4467L90.8574 29.4468L89.8574 29.4578L89.8684 30.4577L90.8684 30.4467ZM91.0336 45.4458L91.0447 46.4458L92.0446 46.4347L92.0336 45.4348L91.0336 45.4458ZM85.534 45.5064L84.534 45.5174L84.5451 46.5174L85.545 46.5064L85.534 45.5064ZM95.2536 24.5481L94.5388 23.8488L94.5282 23.8596L94.5179 23.8708L95.2536 24.5481ZM95.3122 16.2469L94.5246 16.8631L94.5357 16.8773L94.5473 16.8911L95.3122 16.2469ZM90.7031 15.4476L90.6921 14.4477L89.6921 14.4587L89.7032 15.4587L90.7031 15.4476ZM90.8133 25.447L89.8133 25.4581L89.8244 26.458L90.8243 26.447L90.8133 25.447ZM85.1594 11.5085L93.3089 11.4187L93.2868 9.4188L85.1373 9.5086L85.1594 11.5085ZM93.3089 11.4187C96.0111 11.3889 97.7665 12.0081 98.8112 13.0563L100.228 11.6444C98.6432 10.0546 96.2509 9.38614 93.2868 9.4188L93.3089 11.4187ZM98.8202 13.0652C99.8697 14.0917 100.508 15.7935 100.536 18.3895L102.536 18.3674C102.504 15.4971 101.798 13.1801 100.219 11.6355L98.8202 13.0652ZM100.536 18.3895L100.56 20.5393L102.56 20.5173L102.536 18.3674L100.536 18.3895ZM100.56 20.5393C100.579 22.2556 100.308 23.5681 99.8172 24.5352C99.3374 25.48 98.6262 26.1393 97.6522 26.5442L98.4198 28.391C99.8349 27.8028 100.906 26.809 101.6 25.4407C102.284 24.0947 102.581 22.4341 102.56 20.5173L100.56 20.5393ZM97.036 27.4786L97.0371 27.5786L99.037 27.5566L99.0359 27.4566L97.036 27.4786ZM97.7603 28.5285C98.8261 28.8355 99.5286 29.4467 99.9505 30.3936L101.777 29.5796C101.105 28.0717 99.9233 27.0702 98.3139 26.6066L97.7603 28.5285ZM99.9599 30.4141C100.455 31.4607 100.747 32.9473 100.768 34.9379L102.768 34.9159C102.745 32.7734 102.433 30.9665 101.768 29.5591L99.9599 30.4141ZM100.768 34.9379L100.836 41.0875L102.836 41.0655L102.768 34.9159L100.768 34.9379ZM100.836 41.0875C100.847 42.1052 100.891 42.9599 100.97 43.6409L102.956 43.4096C102.888 42.8255 102.847 42.0478 102.836 41.0655L100.836 41.0875ZM100.971 43.6467C101.057 44.3564 101.261 45.0536 101.574 45.7358L103.392 44.9035C103.158 44.3917 103.016 43.8926 102.956 43.4039L100.971 43.6467ZM102.472 44.3197L96.8723 44.3814L96.8943 46.3813L102.494 46.3196L102.472 44.3197ZM97.8226 45.0382C97.6356 44.5266 97.516 44.0623 97.4554 43.6428L95.476 43.9289C95.5597 44.5079 95.7185 45.1072 95.944 45.7246L97.8226 45.0382ZM97.4554 43.6428C97.3939 43.2175 97.3502 42.3795 97.3359 41.0761L95.336 41.0982C95.3503 42.3946 95.3931 43.3558 95.476 43.9289L97.4554 43.6428ZM97.3359 41.0761L97.2654 34.6765L95.2655 34.6985L95.336 41.0982L97.3359 41.0761ZM97.2654 34.6765C97.2472 33.0304 96.9703 31.6044 96.1863 30.694L94.6708 31.9991C94.9674 32.3435 95.2484 33.1448 95.2655 34.6985L97.2654 34.6765ZM96.2066 30.7183C95.4189 29.7429 94.1541 29.4105 92.7572 29.4259L92.7793 31.4257C93.9156 31.4132 94.4243 31.6946 94.6506 31.9748L96.2066 30.7183ZM92.7572 29.4259L90.8574 29.4468L90.8794 31.4467L92.7793 31.4257L92.7572 29.4259ZM89.8684 30.4577L90.0337 45.4568L92.0336 45.4348L91.8683 30.4357L89.8684 30.4577ZM91.0226 44.4459L85.523 44.5065L85.545 46.5064L91.0447 46.4458L91.0226 44.4459ZM86.5339 45.4954L86.1483 10.4975L84.1484 10.5196L84.534 45.5174L86.5339 45.4954ZM92.8242 26.4249C94.0834 26.4111 95.2091 26.0729 95.9894 25.2254L94.5179 23.8708C94.2441 24.1683 93.7428 24.4147 92.8021 24.4251L92.8242 26.4249ZM95.9685 25.2473C96.8051 24.3921 97.0879 23.1097 97.0721 21.6778L95.0723 21.6999C95.0859 22.9345 94.823 23.5583 94.5388 23.8488L95.9685 25.2473ZM97.0721 21.6778L97.0424 18.978L95.0425 19L95.0723 21.6999L97.0721 21.6778ZM97.0424 18.978C97.0275 17.632 96.7746 16.431 96.0771 15.6027L94.5473 16.8911C94.7955 17.1858 95.0294 17.8128 95.0425 19L97.0424 18.978ZM96.0998 15.6307C95.4054 14.7431 94.3512 14.4074 93.1919 14.4202L93.214 16.42C93.9879 16.4115 94.3399 16.627 94.5246 16.8631L96.0998 15.6307ZM93.1919 14.4202L90.6921 14.4477L90.7141 16.4476L93.214 16.42L93.1919 14.4202ZM89.7032 15.4587L89.8133 25.4581L91.8132 25.436L91.703 15.4366L89.7032 15.4587ZM90.8243 26.447L92.8242 26.4249L92.8021 24.4251L90.8023 24.4471L90.8243 26.447Z" fill="white"/>
<path d="M108.263 10.3889L113.763 10.4363L113.461 45.435L107.961 45.3876L108.263 10.3889Z" fill="white"/>
<path d="M108.263 10.3889L108.272 9.38892L107.272 9.3803L107.263 10.3803L108.263 10.3889ZM113.763 10.4363L114.763 10.4449L114.771 9.44497L113.771 9.43635L113.763 10.4363ZM113.461 45.435L113.452 46.435L114.452 46.4436L114.461 45.4436L113.461 45.435ZM107.961 45.3876L106.961 45.379L106.953 46.3789L107.953 46.3875L107.961 45.3876ZM108.254 11.3888L113.754 11.4363L113.771 9.43635L108.272 9.38892L108.254 11.3888ZM112.763 10.4277L112.461 45.4264L114.461 45.4436L114.763 10.4449L112.763 10.4277ZM113.47 44.435L107.97 44.3876L107.953 46.3875L113.452 46.435L113.47 44.435ZM108.961 45.3962L109.263 10.3975L107.263 10.3803L106.961 45.379L108.961 45.3962Z" fill="white"/>
<path d="M125.955 15.6678L120.207 15.5108L120.344 10.5127L137.337 10.9768L137.201 15.9749L131.453 15.818L130.634 45.8068L125.136 45.6566L125.955 15.6678Z" fill="white"/>
<path d="M125.955 15.6678L126.955 15.6951L126.982 14.6955L125.982 14.6682L125.955 15.6678ZM120.207 15.5108L119.208 15.4835L119.18 16.4831L120.18 16.5104L120.207 15.5108ZM120.344 10.5127L120.371 9.51302L119.372 9.48572L119.344 10.4853L120.344 10.5127ZM137.337 10.9768L138.337 11.0041L138.364 10.0045L137.365 9.97718L137.337 10.9768ZM137.201 15.9749L137.174 16.9746L138.173 17.0019L138.201 16.0022L137.201 15.9749ZM131.453 15.818L131.48 14.8183L130.481 14.791L130.453 15.7906L131.453 15.818ZM130.634 45.8068L130.607 46.8064L131.606 46.8337L131.634 45.8341L130.634 45.8068ZM125.136 45.6566L124.136 45.6293L124.109 46.6289L125.109 46.6562L125.136 45.6566ZM125.982 14.6682L120.235 14.5112L120.18 16.5104L125.928 16.6674L125.982 14.6682ZM121.207 15.5381L121.343 10.54L119.344 10.4853L119.208 15.4835L121.207 15.5381ZM120.317 11.5123L137.31 11.9764L137.365 9.97718L120.371 9.51302L120.317 11.5123ZM136.338 10.9495L136.201 15.9476L138.201 16.0022L138.337 11.0041L136.338 10.9495ZM137.228 14.9753L131.48 14.8183L131.426 16.8176L137.174 16.9746L137.228 14.9753ZM130.453 15.7906L129.634 45.7795L131.634 45.8341L132.453 15.8453L130.453 15.7906ZM130.661 44.8071L125.163 44.657L125.109 46.6562L130.607 46.8064L130.661 44.8071ZM126.136 45.6839L126.955 15.6951L124.956 15.6405L124.136 45.6293L126.136 45.6839Z" fill="white"/>
<path d="M147.518 11.4552L154.958 11.8369L158.857 47.083L153.364 46.8012L152.722 39.8091L152.717 39.9089L146.475 39.5887L145.125 46.3785L140.032 46.1171L147.518 11.4552ZM152.311 35.1319L150.75 17.729L150.651 17.7239L147.367 34.8782L152.311 35.1319Z" fill="white"/>
<path d="M147.518 11.4552L147.569 10.4565L146.72 10.4129L146.54 11.2441L147.518 11.4552ZM154.958 11.8369L155.952 11.7269L155.858 10.8818L155.009 10.8382L154.958 11.8369ZM158.857 47.083L158.806 48.0817L159.98 48.1419L159.851 46.973L158.857 47.083ZM153.364 46.8012L152.368 46.8927L152.448 47.7555L153.313 47.7998L153.364 46.8012ZM152.722 39.8091L153.717 39.7175L151.723 39.7578L152.722 39.8091ZM152.717 39.9089L152.665 40.9076L153.664 40.9588L153.715 39.9602L152.717 39.9089ZM146.475 39.5887L146.526 38.59L145.663 38.5457L145.494 39.3937L146.475 39.5887ZM145.125 46.3785L145.074 47.3771L145.937 47.4214L146.106 46.5734L145.125 46.3785ZM140.032 46.1171L139.054 45.906L138.806 47.0556L139.981 47.1158L140.032 46.1171ZM152.311 35.1319L152.26 36.1305L153.41 36.1895L153.307 35.0426L152.311 35.1319ZM150.75 17.729L151.746 17.6397L151.669 16.7749L150.802 16.7304L150.75 17.729ZM150.651 17.7239L150.702 16.7252L149.832 16.6806L149.668 17.5359L150.651 17.7239ZM147.367 34.8782L146.385 34.6902L146.169 35.8181L147.316 35.8769L147.367 34.8782ZM147.466 12.4539L154.907 12.8356L155.009 10.8382L147.569 10.4565L147.466 12.4539ZM153.964 11.9468L157.863 47.1929L159.851 46.973L155.952 11.7269L153.964 11.9468ZM158.908 46.0843L153.416 45.8025L153.313 47.7998L158.806 48.0817L158.908 46.0843ZM154.36 46.7096L153.717 39.7175L151.726 39.9006L152.368 46.8927L154.36 46.7096ZM151.723 39.7578L151.718 39.8577L153.715 39.9602L153.72 39.8603L151.723 39.7578ZM152.768 38.9102L146.526 38.59L146.424 40.5874L152.665 40.9076L152.768 38.9102ZM145.494 39.3937L144.144 46.1835L146.106 46.5734L147.456 39.7837L145.494 39.3937ZM145.176 45.3798L140.083 45.1185L139.981 47.1158L145.074 47.3771L145.176 45.3798ZM141.009 46.3282L148.495 11.6663L146.54 11.2441L139.054 45.906L141.009 46.3282ZM153.307 35.0426L151.746 17.6397L149.754 17.8184L151.315 35.2212L153.307 35.0426ZM150.802 16.7304L150.702 16.7252L150.599 18.7226L150.699 18.7277L150.802 16.7304ZM149.668 17.5359L146.385 34.6902L148.349 35.0662L151.633 17.9119L149.668 17.5359ZM147.316 35.8769L152.26 36.1305L152.362 34.1332L147.419 33.8795L147.316 35.8769Z" fill="white"/>
<path d="M170.929 48.4836C168.27 48.2832 166.315 47.3838 165.065 45.7853C163.817 44.1536 163.3 41.9251 163.513 39.0998L163.663 37.1055L168.849 37.4962L168.668 39.8894C168.498 42.1497 169.36 43.3512 171.255 43.4939C172.185 43.5641 172.903 43.3508 173.409 42.854C173.95 42.3265 174.267 41.4478 174.36 40.218C174.47 38.7555 174.234 37.4507 173.652 36.3037C173.072 35.1235 171.944 33.6847 170.267 31.9872C168.157 29.8225 166.713 27.9086 165.936 26.2455C165.161 24.5492 164.85 22.6872 165.003 20.6596C165.211 17.9008 166.069 15.8261 167.578 14.4355C169.089 13.0117 171.174 12.4 173.833 12.6004C176.459 12.7982 178.379 13.7118 179.594 15.341C180.844 16.9394 181.362 19.1513 181.15 21.9766L181.041 23.4225L175.855 23.0318L175.991 21.2369C176.081 20.0403 175.913 19.1585 175.488 18.5916C175.065 17.9915 174.405 17.6576 173.508 17.59C171.679 17.4522 170.681 18.4969 170.514 20.7239C170.418 21.987 170.662 23.192 171.244 24.339C171.859 25.4885 173.006 26.912 174.683 28.6095C176.826 30.7766 178.268 32.7071 179.01 34.401C179.751 36.0948 180.039 38.0386 179.874 40.2324C179.659 43.091 178.779 45.2309 177.234 46.6522C175.723 48.076 173.621 48.6865 170.929 48.4836Z" fill="white"/>
<path d="M165.065 45.7853L164.271 46.3928L164.277 46.4014L165.065 45.7853ZM163.663 37.1055L163.738 36.1083L162.741 36.0331L162.666 37.0303L163.663 37.1055ZM168.849 37.4962L169.846 37.5713L169.921 36.5742L168.924 36.499L168.849 37.4962ZM173.409 42.854L172.711 42.1379L172.708 42.1408L173.409 42.854ZM173.652 36.3037L172.754 36.7446L172.76 36.7563L173.652 36.3037ZM170.267 31.9872L169.55 32.6852L169.555 32.69L170.267 31.9872ZM165.936 26.2455L165.026 26.6609L165.03 26.6689L165.936 26.2455ZM167.578 14.4355L168.256 15.1709L168.264 15.1634L167.578 14.4355ZM179.594 15.341L178.792 15.9386L178.799 15.9479L178.806 15.957L179.594 15.341ZM181.041 23.4225L180.965 24.4197L181.963 24.4949L182.038 23.4977L181.041 23.4225ZM175.855 23.0318L174.858 22.9567L174.783 23.9538L175.78 24.029L175.855 23.0318ZM175.488 18.5916L174.67 19.1675L174.679 19.1798L174.688 19.1917L175.488 18.5916ZM171.244 24.339L170.352 24.7916L170.357 24.8013L170.362 24.811L171.244 24.339ZM174.683 28.6095L173.971 29.3123L173.972 29.3126L174.683 28.6095ZM179.01 34.401L178.094 34.802L178.094 34.802L179.01 34.401ZM177.234 46.6522L176.557 45.9163L176.549 45.9243L177.234 46.6522ZM171.004 47.4864C168.533 47.3002 166.879 46.482 165.853 45.1693L164.277 46.4014C165.751 48.2855 168.007 49.2662 170.854 49.4807L171.004 47.4864ZM165.859 45.1779C164.809 43.8044 164.309 41.8487 164.51 39.1749L162.516 39.0247C162.292 42.0015 162.826 44.5028 164.271 46.3927L165.859 45.1779ZM164.51 39.1749L164.66 37.1806L162.666 37.0303L162.516 39.0247L164.51 39.1749ZM163.588 38.1026L168.773 38.4934L168.924 36.499L163.738 36.1083L163.588 38.1026ZM167.851 37.421L167.671 39.8143L169.665 39.9645L169.846 37.5713L167.851 37.421ZM167.671 39.8143C167.577 41.0594 167.75 42.1984 168.375 43.0687C169.025 43.9749 170.028 44.4043 171.18 44.4911L171.33 42.4968C170.587 42.4408 170.212 42.1981 170 41.9027C169.762 41.5715 169.589 40.9797 169.665 39.9645L167.671 39.8143ZM171.18 44.4911C172.301 44.5756 173.338 44.3253 174.11 43.5672L172.708 42.1408C172.468 42.3762 172.07 42.5525 171.33 42.4968L171.18 44.4911ZM174.107 43.5701C174.904 42.7934 175.257 41.622 175.357 40.2931L173.362 40.1429C173.277 41.2737 172.996 41.8597 172.711 42.1379L174.107 43.5701ZM175.357 40.2931C175.479 38.6745 175.219 37.183 174.543 35.8512L172.76 36.7563C173.248 37.7185 173.461 38.8365 173.362 40.1429L175.357 40.2931ZM174.549 35.8629C173.898 34.537 172.68 33.0067 170.978 31.2843L169.555 32.69C171.208 34.3626 172.246 35.71 172.754 36.7446L174.549 35.8629ZM170.983 31.2892C168.907 29.1598 167.551 27.3392 166.842 25.8221L165.03 26.6689C165.875 28.478 167.406 30.4852 169.55 32.6852L170.983 31.2892ZM166.845 25.8301C166.147 24.3009 165.859 22.6096 166 20.7348L164.006 20.5845C163.841 22.7648 164.175 24.7975 165.026 26.6609L166.845 25.8301ZM166 20.7348C166.196 18.1389 166.99 16.3372 168.256 15.1708L166.9 13.7002C165.148 15.3149 164.226 17.6627 164.006 20.5845L166 20.7348ZM168.264 15.1634C169.516 13.9836 171.295 13.4119 173.758 13.5975L173.909 11.6032C171.054 11.3881 168.662 12.0398 166.892 13.7077L168.264 15.1634ZM173.758 13.5975C176.187 13.7805 177.799 14.6059 178.792 15.9386L180.396 14.7433C178.96 12.8177 176.732 11.816 173.909 11.6032L173.758 13.5975ZM178.806 15.957C179.851 17.2932 180.354 19.226 180.152 21.9015L182.147 22.0518C182.371 19.0767 181.837 16.5857 180.381 14.7249L178.806 15.957ZM180.152 21.9015L180.043 23.3474L182.038 23.4977L182.147 22.0518L180.152 21.9015ZM181.116 22.4254L175.93 22.0346L175.78 24.029L180.965 24.4197L181.116 22.4254ZM176.852 23.1069L176.988 21.312L174.993 21.1617L174.858 22.9567L176.852 23.1069ZM176.988 21.312C177.084 20.0282 176.93 18.8478 176.288 17.9915L174.688 19.1917C174.896 19.4693 175.077 20.0524 174.993 21.1617L176.988 21.312ZM176.305 18.0157C175.672 17.1166 174.704 16.6773 173.583 16.5928L173.432 18.5872C174.106 18.6379 174.458 18.8665 174.67 19.1675L176.305 18.0157ZM173.583 16.5928C172.457 16.508 171.424 16.7844 170.665 17.5794C169.939 18.339 169.609 19.4241 169.516 20.6487L171.511 20.799C171.586 19.7967 171.839 19.246 172.111 18.9609C172.35 18.7112 172.73 18.5342 173.432 18.5872L173.583 16.5928ZM169.516 20.6487C169.407 22.097 169.689 23.4843 170.352 24.7916L172.136 23.8864C171.635 22.8997 171.43 21.8769 171.511 20.799L169.516 20.6487ZM170.362 24.811C171.046 26.0882 172.273 27.5931 173.971 29.3123L175.394 27.9066C173.738 26.2308 172.673 24.8887 172.126 23.867L170.362 24.811ZM173.972 29.3126C176.077 31.4417 177.423 33.2701 178.094 34.802L179.926 34C179.114 32.1442 177.575 30.1116 175.394 27.9063L173.972 29.3126ZM178.094 34.802C178.758 36.3202 179.032 38.0956 178.877 40.1573L180.871 40.3076C181.047 37.9816 180.744 35.8695 179.926 34L178.094 34.802ZM178.877 40.1573C178.674 42.8568 177.856 44.7213 176.557 45.9164L177.911 47.388C179.702 45.7405 180.644 43.3252 180.871 40.3076L178.877 40.1573ZM176.549 45.9243C175.299 47.1017 173.505 47.6749 171.004 47.4864L170.854 49.4807C173.737 49.698 176.147 49.0502 177.92 47.3801L176.549 45.9243Z" fill="white"/>
<path d="M187.89 14.2595L193.363 14.8041L191.903 29.4816L200.329 15.4971L205.802 16.0416L198.012 28.18L202.436 50.8796L196.714 50.3103L193.632 34.3266L191.002 38.5369L189.898 49.6321L184.425 49.0876L187.89 14.2595Z" fill="white"/>
<path d="M187.89 14.2595L187.989 13.2645L186.994 13.1654L186.895 14.1605L187.89 14.2595ZM193.363 14.8041L194.358 14.9031L194.457 13.908L193.462 13.809L193.363 14.8041ZM191.903 29.4816L190.908 29.3826L192.759 29.9977L191.903 29.4816ZM200.329 15.4971L200.428 14.502L199.799 14.4394L199.472 14.981L200.329 15.4971ZM205.802 16.0416L206.643 16.5817L207.525 15.2081L205.901 15.0465L205.802 16.0416ZM198.012 28.18L197.17 27.6399L196.953 27.9775L197.03 28.3713L198.012 28.18ZM202.436 50.8796L202.337 51.8746L203.675 52.0077L203.418 50.6882L202.436 50.8796ZM196.714 50.3103L195.733 50.4997L195.874 51.2316L196.615 51.3054L196.714 50.3103ZM193.632 34.3266L194.614 34.1372L194.132 31.6384L192.784 33.7968L193.632 34.3266ZM191.002 38.5369L190.154 38.0071L190.03 38.2053L190.007 38.4379L191.002 38.5369ZM189.898 49.6321L189.799 50.6272L190.794 50.7262L190.893 49.7311L189.898 49.6321ZM184.425 49.0876L183.43 48.9886L183.331 49.9837L184.326 50.0827L184.425 49.0876ZM187.791 15.2546L193.264 15.7991L193.462 13.809L187.989 13.2645L187.791 15.2546ZM192.368 14.7051L190.908 29.3826L192.898 29.5806L194.358 14.9031L192.368 14.7051ZM192.759 29.9977L201.185 16.0132L199.472 14.981L191.046 28.9655L192.759 29.9977ZM200.23 16.4922L205.703 17.0367L205.901 15.0465L200.428 14.502L200.23 16.4922ZM204.96 15.5015L197.17 27.6399L198.853 28.7201L206.643 16.5817L204.96 15.5015ZM197.03 28.3713L201.455 51.0709L203.418 50.6882L198.993 27.9887L197.03 28.3713ZM202.535 49.8845L196.813 49.3152L196.615 51.3054L202.337 51.8746L202.535 49.8845ZM197.696 50.1209L194.614 34.1372L192.65 34.5159L195.733 50.4997L197.696 50.1209ZM192.784 33.7968L190.154 38.0071L191.85 39.0666L194.48 34.8563L192.784 33.7968ZM190.007 38.4379L188.903 49.5331L190.893 49.7311L191.997 38.6359L190.007 38.4379ZM189.997 48.637L184.524 48.0925L184.326 50.0827L189.799 50.6272L189.997 48.637ZM185.42 49.1866L188.885 14.3585L186.895 14.1605L183.43 48.9886L185.42 49.1866Z" fill="white"/>
</svg>
